HIERARCHY
ROOT Hips
{
    OFFSET 0.000000 0.000000 0.000000
    CHANNELS 6 Xposition Yposition Zposition Zrotation Xrotation Yrotation
    JOINT Spine
    {
        OFFSET -0.000000 7.305679 0.000000
        CHANNELS 3 Zrotation Xrotation Yrotation
        JOINT Spine1
        {
            OFFSET -0.000000 20.356625 0.000000
            CHANNELS 3 Zrotation Xrotation Yrotation
            JOINT Neck
            {
                OFFSET -0.000000 22.138498 0.000000
                CHANNELS 3 Zrotation Xrotation Yrotation
                JOINT Head
                {
                    OFFSET -0.000000 13.809516 1.781873
                    CHANNELS 3 Zrotation Xrotation Yrotation
                    End Site
                    {
                        OFFSET -0.000000 17.818729 0.000000
                    }
                }
            }
            JOINT LeftShoulder
            {
                OFFSET 3.599131 17.989975 0.023592
                CHANNELS 3 Zrotation Xrotation Yrotation
                JOINT LeftArm
                {
                    OFFSET 12.560995 0.000000 0.000000
                    CHANNELS 3 Zrotation Xrotation Yrotation
                    JOINT LeftForeArm
                    {
                        OFFSET 22.903347 0.000000 0.000000
                        CHANNELS 3 Zrotation Xrotation Yrotation
                        JOINT LeftHand
                        {
                            OFFSET 21.865294 0.000000 0.000000
                            CHANNELS 3 Zrotation Xrotation Yrotation
                            JOINT LeftHandThumb1
                            {
                                OFFSET 1.853706 -2.106484 2.949078
                                CHANNELS 3 Zrotation Xrotation Yrotation
                                JOINT LeftHandThumb2
                                {
                                    OFFSET 2.049154 0.000000 1.336405
                                    CHANNELS 3 Zrotation Xrotation Yrotation
                                    JOINT LeftHandThumb3
                                    {
                                        OFFSET 2.672809 0.000000 0.000000
                                        CHANNELS 3 Zrotation Xrotation Yrotation
                                        End Site
                                        {
                                            OFFSET 2.381303 0.000000 0.000000
                                        }
                                    }
                                }
                            }
                            JOINT LeftHandIndex1
                            {
                                OFFSET 7.583345 0.000000 2.949078
                                CHANNELS 3 Zrotation Xrotation Yrotation
                                JOINT LeftHandIndex2
                                {
                                    OFFSET 4.454682 0.000000 0.000000
                                    CHANNELS 3 Zrotation Xrotation Yrotation
                                    JOINT LeftHandIndex3
                                    {
                                        OFFSET 2.227341 0.000000 0.000000
                                        CHANNELS 3 Zrotation Xrotation Yrotation
                                        End Site
                                        {
                                            OFFSET 1.984419 0.000000 0.000000
                                        }
                                    }
                                }
                            }
                            JOINT LeftHandMiddle1
                            {
                                OFFSET 7.583345 0.000000 0.977409
                                CHANNELS 3 Zrotation Xrotation Yrotation
                                JOINT LeftHandMiddle2
                                {
                                    OFFSET 4.900151 0.000000 0.000000
                                    CHANNELS 3 Zrotation Xrotation Yrotation
                                    JOINT LeftHandMiddle3
                                    {
                                        OFFSET 2.672809 0.000000 0.000000
                                        CHANNELS 3 Zrotation Xrotation Yrotation
                                        End Site
                                        {
                                            OFFSET 2.381303 0.000000 0.000000
                                        }
                                    }
                                }
                            }
                            JOINT LeftHandRing1
                            {
                                OFFSET 7.162047 0.000000 -0.977409
                                CHANNELS 3 Zrotation Xrotation Yrotation
                                JOINT LeftHandRing2
                                {
                                    OFFSET 4.454682 0.000000 0.000000
                                    CHANNELS 3 Zrotation Xrotation Yrotation
                                    JOINT LeftHandRing3
                                    {
                                        OFFSET 2.227341 0.000000 0.000000
                                        CHANNELS 3 Zrotation Xrotation Yrotation
                                        End Site
                                        {
                                            OFFSET 1.984419 0.000000 0.000000
                                        }
                                    }
                                }
                            }
                            JOINT LeftHandPinky1
                            {
                                OFFSET 6.740750 0.000000 -2.949078
                                CHANNELS 3 Zrotation Xrotation Yrotation
                                JOINT LeftHandPinky2
                                {
                                    OFFSET 3.563746 0.000000 0.000000
                                    CHANNELS 3 Zrotation Xrotation Yrotation
                                    JOINT LeftHandPinky3
                                    {
                                        OFFSET 1.781873 0.000000 0.000000
                                        CHANNELS 3 Zrotation Xrotation Yrotation
                                        End Site
                                        {
                                            OFFSET 1.587536 0.000000 0.000000
                                        }
                                    }
                                }
                            }
                        }
                    }
                }
            }
            JOINT RightShoulder
            {
                OFFSET -3.506995 17.989975 0.023592
                CHANNELS 3 Zrotation Xrotation Yrotation
                JOINT RightArm
                {
                    OFFSET -12.560995 0.000000 0.000000
                    CHANNELS 3 Zrotation Xrotation Yrotation
                    JOINT RightForeArm
                    {
                        OFFSET -22.903347 0.000000 0.000000
                        CHANNELS 3 Zrotation Xrotation Yrotation
                        JOINT RightHand
                        {
                            OFFSET -21.865294 0.000000 0.000000
                            CHANNELS 3 Zrotation Xrotation Yrotation
                            JOINT RightHandThumb1
                            {
                                OFFSET -1.853706 -2.106484 2.949078
                                CHANNELS 3 Zrotation Xrotation Yrotation
                                JOINT RightHandThumb2
                                {
                                    OFFSET -2.049154 0.000000 1.336405
                                    CHANNELS 3 Zrotation Xrotation Yrotation
                                    JOINT RightHandThumb3
                                    {
                                        OFFSET -2.672809 0.000000 0.000000
                                        CHANNELS 3 Zrotation Xrotation Yrotation
                                        End Site
                                        {
                                            OFFSET -2.381303 0.000000 0.000000
                                        }
                                    }
                                }
                            }
                            JOINT RightHandIndex1
                            {
                                OFFSET -7.583345 0.000000 2.949078
                                CHANNELS 3 Zrotation Xrotation Yrotation
                                JOINT RightHandIndex2
                                {
                                    OFFSET -4.454682 0.000000 0.000000
                                    CHANNELS 3 Zrotation Xrotation Yrotation
                                    JOINT RightHandIndex3
                                    {
                                        OFFSET -2.227341 0.000000 0.000000
                                        CHANNELS 3 Zrotation Xrotation Yrotation
                                        End Site
                                        {
                                            OFFSET -1.984419 0.000000 0.000000
                                        }
                                    }
                                }
                            }
                            JOINT RightHandMiddle1
                            {
                                OFFSET -7.583345 0.000000 0.977409
                                CHANNELS 3 Zrotation Xrotation Yrotation
                                JOINT RightHandMiddle2
                                {
                                    OFFSET -4.900151 0.000000 0.000000
                                    CHANNELS 3 Zrotation Xrotation Yrotation
                                    JOINT RightHandMiddle3
                                    {
                                        OFFSET -2.672809 0.000000 0.000000
                                        CHANNELS 3 Zrotation Xrotation Yrotation
                                        End Site
                                        {
                                            OFFSET -2.381303 0.000000 0.000000
                                        }
                                    }
                                }
                            }
                            JOINT RightHandRing1
                            {
                                OFFSET -7.162047 0.000000 -0.977409
                                CHANNELS 3 Zrotation Xrotation Yrotation
                                JOINT RightHandRing2
                                {
                                    OFFSET -4.454682 0.000000 0.000000
                                    CHANNELS 3 Zrotation Xrotation Yrotation
                                    JOINT RightHandRing3
                                    {
                                        OFFSET -2.227341 0.000000 0.000000
                                        CHANNELS 3 Zrotation Xrotation Yrotation
                                        End Site
                                        {
                                            OFFSET -1.984419 0.000000 0.000000
                                        }
                                    }
                                }
                            }
                            JOINT RightHandPinky1
                            {
                                OFFSET -6.740750 0.000000 -2.949078
                                CHANNELS 3 Zrotation Xrotation Yrotation
                                JOINT RightHandPinky2
                                {
                                    OFFSET -3.563746 0.000000 0.000000
                                    CHANNELS 3 Zrotation Xrotation Yrotation
                                    JOINT RightHandPinky3
                                    {
                                        OFFSET -1.781873 0.000000 0.000000
                                        CHANNELS 3 Zrotation Xrotation Yrotation
                                        End Site
                                        {
                                            OFFSET -1.587536 0.000000 0.000000
                                        }
                                    }
                                }
                            }
                        }
                    }
                }
            }
        }
    }
    JOINT LeftUpLeg
    {
        OFFSET 8.909365 0.000000 0.000000
        CHANNELS 3 Zrotation Xrotation Yrotation
        JOINT LeftLeg
        {
            OFFSET -0.000000 -38.765560 0.000000
            CHANNELS 3 Zrotation Xrotation Yrotation
            JOINT LeftFoot
            {
                OFFSET -0.000000 -35.244961 0.000000
                CHANNELS 3 Zrotation Xrotation Yrotation
                JOINT LeftToeBase
                {
                    OFFSET -0.000000 -5.791087 13.364048
                    CHANNELS 3 Zrotation Xrotation Yrotation
                    End Site
                    {
                        OFFSET -0.000000 0.000000 3.563746
                    }
                }
            }
        }
    }
    JOINT RightUpLeg
    {
        OFFSET -8.909365 0.000000 0.000000
        CHANNELS 3 Zrotation Xrotation Yrotation
        JOINT RightLeg
        {
            OFFSET -0.000000 -38.765560 0.000000
            CHANNELS 3 Zrotation Xrotation Yrotation
            JOINT RightFoot
            {
                OFFSET -0.000000 -35.244961 0.000000
                CHANNELS 3 Zrotation Xrotation Yrotation
                JOINT RightToeBase
                {
                    OFFSET -0.000000 -5.791087 13.364048
                    CHANNELS 3 Zrotation Xrotation Yrotation
                    End Site
                    {
                        OFFSET -0.000000 0.000000 3.563746
                    }
                }
            }
        }
    }
}
MOTION
Frames:    4
Frame Time:    0.008333
-21.805286    77.481857    112.702644    2.934053    -16.649405    -0.289677    -0.385618    6.069918    -4.212844    -1.913555    18.989698    -1.089244    8.225787    24.125244    2.349339    6.937122    -17.846430    5.472179    6.831814    -10.740467    -23.526569    -70.048943    38.158489    -21.263943    61.982933    -8.519876    -42.864002    1.364806    -11.253948    6.850819    -6.971233    3.259782    -5.099835    0.000000    0.000000    0.000000    0.000000    0.000000    0.000000    -10.261221    1.063222    -5.852349    -20.631142    0.000000    0.000000    -10.315569    0.000000    0.000000    -20.042263    0.464525    -2.853002    -40.091213    0.000000    0.000000    -20.045605    0.000000    0.000000    -29.779081    -0.633957    0.001194    -59.551285    0.000000    0.000000    -29.775635    0.000000    0.000000    -39.747337    -2.252181    2.705499    -79.601051    0.000000    0.000000    -39.800526    0.000000    0.000000    -11.490138    -16.444485    8.983863    38.218369    60.984146    53.670971    -81.341560    -26.236410    35.749634    28.134949    -32.623997    2.124837    3.848431    -8.212408    15.726671    0.000000    0.000000    0.000000    0.000000    0.000000    0.000000    21.708954    2.141500    5.361945    43.618484    0.000000    -0.000000    21.809242    0.000000    -0.000000    26.067408    0.408795    1.558359    52.145206    0.000000    -0.000000    26.072603    0.000000    -0.000000    30.302967    -1.604020    -2.103973    60.671928    0.000000    -0.000000    30.335974    0.000000    -0.000000    34.531147    -3.950659    -5.717947    69.457054    0.000000    -0.000000    34.728527    0.000000    -0.000000    12.096544    -0.624208    6.394907    -2.144528    32.948410    -2.643002    -10.354839    -18.181692    2.588864    0.026558    -0.474326    -0.124197    -12.444057    -2.607044    1.535641    -2.901995    40.295933    5.420590    11.476386    -20.890266    9.949515    -0.167856    0.920989    0.353531    
-21.611647    77.701027    112.186852    2.895993    -15.715442    -0.704886    -0.300628    6.452149    -4.138849    -1.808166    18.672459    -1.086008    8.286916    23.069855    2.524419    6.350757    -18.056681    5.592832    6.928798    -11.128668    -24.208103    -69.234299    40.060425    -23.518970    61.034431    -5.287436    -41.977882    0.932197    -10.815982    6.708020    -7.269046    3.213914    -5.582757    0.000000    0.000000    0.000000    0.000000    0.000000    0.000000    -11.093599    1.211555    -6.154754    -22.317478    0.000000    0.000000    -11.158738    0.000000    0.000000    -20.523018    0.576977    -3.068942    -41.058731    0.000000    0.000000    -20.529364    0.000000    0.000000    -29.904869    -0.553401    -0.128697    -59.799984    0.000000    0.000000    -29.899986    0.000000    0.000000    -39.503307    -2.201535    2.667775    -79.109146    0.000000    0.000000    -39.554573    0.000000    0.000000    -11.537783    -16.849150    9.556625    34.727428    60.695400    58.448307    -78.831512    -23.208143    35.992970    29.794804    -31.223898    1.782496    4.125482    -8.501806    16.421185    0.000000    0.000000    0.000000    0.000000    0.000000    0.000000    22.178219    2.304189    5.632644    44.583176    0.000000    -0.000000    22.291586    0.000000    -0.000000    26.458391    0.506200    1.733690    52.930481    0.000000    -0.000000    26.465240    0.000000    -0.000000    30.607904    -1.573463    -2.021571    61.277790    0.000000    -0.000000    30.638895    0.000000    -0.000000    34.739262    -3.989954    -5.729970    69.878044    0.000000    -0.000000    34.939014    0.000000    -0.000000    11.838475    -1.449145    6.668429    -2.177328    32.282925    -2.020523    -10.436246    -18.071617    2.308457    0.029176    -0.488514    -0.132511    -12.581321    -3.680076    1.679458    -2.712823    39.457672    5.025815    11.657231    -19.961960    10.221545    -0.170321    0.889478    0.354350    
-21.416000    77.917931    111.673569    2.871478    -14.750486    -1.115247    -0.237307    6.736553    -4.033764    -1.799453    18.378002    -1.052561    8.436336    22.014421    2.653273    6.031238    -18.084497    5.689989    7.066005    -11.311442    -25.084671    -68.303040    41.812881    -25.946955    59.899094    -1.973309    -40.804527    0.685182    -10.487161    6.533457    -7.562799    3.234360    -5.974563    0.000000    0.000000    0.000000    0.000000    0.000000    0.000000    -11.719808    1.349357    -6.476151    -23.592300    0.000000    0.000000    -11.796151    0.000000    0.000000    -20.833797    0.682178    -3.290865    -41.686714    0.000000    0.000000    -20.843357    0.000000    0.000000    -29.896677    -0.479794    -0.251452    -59.781132    0.000000    0.000000    -29.890558    0.000000    0.000000    -39.161945    -2.160412    2.650002    -78.423851    0.000000    0.000000    -39.211926    0.000000    0.000000    -11.339677    -17.003368    10.402370    31.618904    60.141216    62.623802    -76.459206    -20.108068    35.831944    31.307360    -29.911640    1.443386    4.379171    -8.738676    17.017691    0.000000    0.000000    0.000000    0.000000    0.000000    0.000000    22.595873    2.477874    5.930790    45.448502    0.000000    -0.000000    22.724251    0.000000    -0.000000    26.753216    0.613958    1.923819    53.524483    0.000000    -0.000000    26.762241    0.000000    -0.000000    30.771492    -1.530815    -1.938762    61.600471    0.000000    -0.000000    30.800228    0.000000    -0.000000    34.758659    -4.013046    -5.758718    69.921173    0.000000    -0.000000    34.960587    0.000000    -0.000000    11.588409    -2.299363    6.967594    -2.192046    31.604990    -1.355950    -10.568194    -17.949591    1.927812    0.032005    -0.493468    -0.140207    -12.718121    -4.767083    1.815329    -2.532084    38.596024    4.640790    11.834008    -19.032248    10.475382    -0.172166    0.856086    0.354017    
-21.218460    78.128944    111.162827    2.863013    -13.759401    -1.523820    -0.188198    7.044711    -3.911157    -1.772288    18.163412    -1.024287    8.597785    20.656446    2.790848    5.668188    -18.056881    5.770067    7.170571    -11.601070    -25.758184    -67.280807    43.532509    -28.574594    58.612415    1.487106    -39.429417    0.488509    -10.394411    6.218161    -7.818735    3.301174    -6.252710    0.000000    0.000000    0.000000    0.000000    0.000000    0.000000    -12.169634    1.483272    -6.844540    -24.516680    0.000000    0.000000    -12.258340    0.000000    0.000000    -21.006432    0.789047    -3.543487    -42.039387    0.000000    0.000000    -21.019690    0.000000    0.000000    -29.788404    -0.402553    -0.388326    -59.562088    0.000000    0.000000    -29.781044    0.000000    0.000000    -38.759197    -2.117157    2.634596    -77.615776    0.000000    0.000000    -38.807888    0.000000    0.000000    -11.195221    -17.297100    11.093669    28.972399    59.679344    66.490028    -74.165207    -16.876438    35.406750    32.607571    -28.778032    1.110281    4.600520    -8.951825    17.550282    0.000000    0.000000    0.000000    0.000000    0.000000    0.000000    22.997400    2.663980    6.249572    46.285717    0.000000    -0.000000    23.142859    0.000000    -0.000000    26.999388    0.735092    2.132173    54.022522    0.000000    -0.000000    27.011263    0.000000    -0.000000    30.853657    -1.471274    -1.841695    61.759350    0.000000    -0.000000    30.879675    0.000000    -0.000000    34.662655    -4.013091    -5.779293    69.730614    0.000000    -0.000000    34.865307    0.000000    -0.000000    11.346712    -3.177583    7.279093    -2.199964    30.928970    -0.678166    -10.737423    -17.814528    1.500909    0.036315    -0.492711    -0.150901    -12.857983    -5.870724    1.944238    -2.360747    37.723648    4.266348    12.007617    -18.106348    10.715112    -0.172889    0.820289    0.351700    
